<svg width="174" height="32" viewBox="0 0 174 32" fill="none" xmlns="http://www.w3.org/2000/svg">
<path d="M14.8478 12.7952L21.4198 8.75772C21.7849 8.53882 22.0283 8.12534 22.0283 7.68754V5.15804C22.0283 1.43676 17.9391 -0.849525 14.7748 1.09625L3.16429 8.22263C1.19269 9.43874 0 11.5791 0 13.8654V21.6485C0 25.3697 4.08924 27.656 7.25353 25.7102L10.3935 23.7888C10.7586 23.5699 11.002 23.1564 11.002 22.7186V19.7027C10.9777 16.8813 12.4381 14.2545 14.8478 12.7952Z" fill="#FFFFFF"/>
<path d="M34.1554 19.0009V11.5827C34.1554 8.03166 30.2609 5.86699 27.2427 7.71547L16.1677 14.5014C14.2934 15.6688 13.1494 17.6875 13.1494 19.9009V27.3434C13.1494 30.8945 17.0439 33.0591 20.0622 31.2107L31.1372 24.4248C33.0358 23.233 34.1554 21.2143 34.1554 19.0009Z" fill="#FFFFFF"/>
<path d="M46.7019 26H51.3349V9.53662H57.3083V5.60289H40.7284V9.53662H46.7019V26ZM63.5711 26.2331C67.7671 26.2331 70.6518 23.902 71.2637 20.6968H66.6307C66.3393 21.804 65.2612 22.5034 63.5711 22.5034C61.5023 22.5034 60.0162 21.3669 59.6665 18.9776H71.2929C72.0214 13.7326 68.787 9.62404 63.3963 9.62404C58.6467 9.62404 55.2374 13.0915 55.2374 17.9286C55.2374 22.7656 58.4136 26.2331 63.5711 26.2331ZM59.8414 15.7432C60.3367 13.9366 61.5314 13.0333 63.3963 13.0333C65.2612 13.0333 66.5141 14.0823 66.6016 15.7432H59.8414ZM78.2666 26.2331C80.2772 26.2331 82.0546 25.4755 82.8122 24.1934V26H87.3287V16.1511C87.3287 11.8677 84.24 9.62404 79.9566 9.62404C75.9646 9.62404 72.9925 12.13 72.6137 15.5683H76.9262C77.1011 13.9366 78.2957 13.0333 79.8984 13.0333C81.6467 13.0333 82.8122 13.9657 82.8122 15.6266V15.8306L79.5196 16.1802C74.7117 16.6756 72.6137 18.4822 72.6137 21.5126C72.6137 24.3682 74.7991 26.2331 78.2666 26.2331ZM77.1302 21.3087C77.1302 20.3179 77.8878 19.5895 79.607 19.4146L82.8122 19.065C82.7248 21.3961 81.3262 22.8822 79.199 22.8822C77.9461 22.8822 77.1302 22.2411 77.1302 21.3087ZM109.24 9.62404C107.258 9.62404 105.219 10.4108 103.733 12.2465C102.888 10.6439 101.081 9.62404 98.8374 9.62404C96.652 9.62404 94.8745 10.673 94.1752 11.722V9.85715H89.6587V26H94.1752V18.861C94.1752 15.4226 95.4282 13.5869 97.4679 13.5869C99.1288 13.5869 100.032 14.7525 100.032 16.6173V26H104.549V18.861C104.549 15.4518 105.772 13.5869 107.841 13.5869C109.502 13.5869 110.376 14.7525 110.376 16.6173V26H114.893V15.4518C114.893 11.9551 112.591 9.62404 109.24 9.62404ZM121.104 26H125.3L128.476 16.5299L131.652 26H135.848L141.734 9.85715H136.984L133.808 19.8517L130.632 9.85715H126.465L123.318 19.8517L120.113 9.85715H115.247L121.104 26ZM147.259 26.2331C149.27 26.2331 151.047 25.4755 151.805 24.1934V26H156.322V16.1511C156.322 11.8677 153.233 9.62404 148.949 9.62404C144.957 9.62404 141.985 12.13 141.606 15.5683H145.919C146.094 13.9366 147.288 13.0333 148.891 13.0333C150.639 13.0333 151.805 13.9657 151.805 15.6266V15.8306L148.512 16.1802C143.704 16.6756 141.606 18.4822 141.606 21.5126C141.606 24.3682 143.792 26.2331 147.259 26.2331ZM146.123 21.3087C146.123 20.3179 146.881 19.5895 148.6 19.4146L151.805 19.065C151.718 21.3961 150.319 22.8822 148.192 22.8822C146.939 22.8822 146.123 22.2411 146.123 21.3087ZM160.269 31.3032H164.99L173.586 9.85715H168.836L165.077 19.8517L161.26 9.85715H156.394L162.717 25.5629L160.269 31.3032Z" fill="#FFFFFF"/>
</svg>
